<svg width="12" height="13" viewBox="0 0 12 13" fill="none" xmlns="http://www.w3.org/2000/svg">
<path d="M9.29737 5.46914C9.61076 4.64141 10.5134 2.24707 10.5134 1.48027C10.5134 0.804883 10.0929 0.238672 9.3429 0.238672C8.14826 0.238672 7.07683 3.58262 6.74201 4.37988C6.48219 3.65625 5.26612 0 4.19469 0C3.36165 0 2.97058 0.581445 2.97058 1.3127C2.97058 2.20898 3.88665 4.53223 4.21879 5.42598C4.05004 5.36758 3.8679 5.3168 3.68308 5.3168C3.05629 5.3168 2.38933 6.05566 2.38933 6.65234C2.38933 6.87832 2.52058 7.1957 2.60362 7.40645C1.61522 7.66035 1.23487 8.28496 1.23487 9.22695C1.23219 11.0602 3.06433 13 5.64112 13C8.80183 13 10.7679 10.7504 10.7679 7.84824C10.7679 6.75391 10.5831 5.76621 9.29737 5.46914ZM8.34915 2.74219C8.4563 2.42988 8.91433 1.10957 9.3429 1.10957C9.57326 1.10957 9.63487 1.33555 9.63487 1.51582C9.63487 2.00078 8.60094 4.67949 8.37326 5.27363L7.46255 5.12129L8.34915 2.74219ZM3.81165 1.22637C3.81165 0.924219 4.20005 0.0660156 5.05183 2.42227L5.97862 4.96895C5.56076 4.93594 5.23665 4.89277 5.0304 5.00449C4.73844 4.27324 3.81165 1.96523 3.81165 1.22637ZM3.75004 6.19531C4.53487 6.19531 5.54737 8.59727 5.54737 8.92227C5.54737 9.05176 5.41612 9.21172 5.26344 9.21172C4.70362 9.21172 3.20362 7.25918 3.20362 6.73105C3.20629 6.53555 3.54379 6.19531 3.75004 6.19531ZM8.68665 10.9256C7.90719 11.7381 6.91076 12.1596 5.74826 12.1596C4.15719 12.1596 2.90094 11.3318 2.29558 9.91758C1.83754 8.81563 2.39737 8.1834 2.84737 8.1834C3.15272 8.1834 4.30183 9.71445 4.30183 10.0395C4.30183 10.1639 4.09558 10.2502 3.98844 10.2502C3.55719 10.2502 3.38844 9.85664 2.61969 8.94512C1.82415 9.69922 3.16879 11.1516 4.18129 11.1516C4.8804 11.1516 5.33576 10.5371 5.19915 10.0852C5.29826 10.0852 5.42147 10.0928 5.51255 10.0699C5.54201 10.758 5.7563 11.5781 6.62951 11.6365C6.62951 11.6137 6.68308 11.4563 6.68308 11.4486C6.68308 11.0068 6.39915 10.6209 6.39915 10.1715C6.39915 9.45293 6.9804 8.75723 7.56969 8.35098C7.78397 8.19863 8.0438 8.10469 8.29558 8.01836C8.5554 7.92441 8.8313 7.81523 9.02951 7.62734C9.00005 7.34297 8.87683 7.0916 8.57683 7.0916C7.83487 7.0916 5.34647 7.19316 5.34647 6.08359C5.34647 5.91348 5.34915 5.75098 5.81254 5.75098C6.67772 5.75098 8.87415 5.9541 9.51701 6.48984C10.0018 6.89863 10.1679 9.36406 8.68665 10.9256ZM6.04558 7.72637C6.3054 7.80508 6.57326 7.82793 6.84112 7.87871C6.6429 8.01582 6.46612 8.1834 6.29737 8.36367C6.22237 8.14785 6.13129 7.93711 6.04558 7.72637Z" fill="black"/>
</svg>
