<svg width="12" height="10" viewBox="0 0 12 10" fill="none" xmlns="http://www.w3.org/2000/svg">
<g clip-path="url(#clip0_1_216)">
<path d="M12 1.39173C11.5504 1.58448 11.0737 1.71087 10.5857 1.76673C11.1 1.4684 11.4857 0.998397 11.67 0.44423C11.1854 0.721174 10.6563 0.916693 10.1049 1.02256C9.7333 0.639855 9.24251 0.386686 8.70823 0.302134C8.17396 0.217582 7.62592 0.306348 7.1487 0.554732C6.67148 0.803115 6.29161 1.1973 6.06774 1.67645C5.84387 2.1556 5.78844 2.69307 5.91 3.2059C4.93133 3.15769 3.97398 2.91026 3.09988 2.47961C2.22579 2.04896 1.45443 1.44469 0.835714 0.705897C0.521262 1.23249 0.424762 1.85571 0.565813 2.44897C0.706864 3.04223 1.07489 3.56105 1.59514 3.90006C1.2108 3.88811 0.835063 3.78636 0.499714 3.6034C0.492138 4.15837 0.682919 4.6987 1.03949 5.13215C1.39606 5.5656 1.89631 5.86529 2.45486 5.98006C2.09293 6.07626 1.71301 6.08967 1.34486 6.01923C1.50153 6.49532 1.8077 6.91172 2.22035 7.20991C2.63299 7.50811 3.13136 7.67311 3.64543 7.68173C2.61038 8.46187 1.2997 8.81182 0 8.65506C1.12589 9.35853 2.43652 9.73148 3.77486 9.72923C4.72327 9.73556 5.66301 9.55342 6.53642 9.19398C7.40983 8.83454 8.19848 8.30538 8.85399 7.63898C9.5095 6.97257 10.018 6.18297 10.3484 5.31863C10.6788 4.45429 10.824 3.53343 10.7751 2.61256C11.2536 2.27823 11.6681 1.86505 12 1.39173Z" fill="black"/>
</g>
<defs>
<clipPath id="clip0_1_216">
<rect width="12" height="10" fill="white"/>
</clipPath>
</defs>
</svg>
