<svg width="10" height="10" viewBox="0 0 10 10" fill="none" xmlns="http://www.w3.org/2000/svg">
<g clip-path="url(#clip0_1_218)">
<path d="M2.22329 9.86083H0.139959V2.91666H2.22329V9.86083ZM9.86246 9.86083H7.77913V6.15166C7.77913 5.18499 7.43413 4.70333 6.75163 4.70333C6.21079 4.70333 5.86829 4.97333 5.69579 5.51249V9.86083H3.61246C3.61246 9.86083 3.63996 3.61083 3.61246 2.91666H5.25663L5.38329 4.30583H5.42663C5.85413 3.61083 6.53663 3.13999 7.47246 3.13999C8.18413 3.13999 8.75996 3.33833 9.19996 3.83583C9.64163 4.33333 9.86246 5.00166 9.86246 5.93999V9.86083ZM1.18079 2.22249C1.77496 2.22249 2.25663 1.75583 2.25663 1.18083C2.25663 0.605827 1.77496 0.13916 1.18079 0.13916C0.585793 0.13916 0.104126 0.605827 0.104126 1.18083C0.104126 1.75583 0.585793 2.22249 1.18079 2.22249Z" fill="black"/>
</g>
<defs>
<clipPath id="clip0_1_218">
<rect width="10" height="10" fill="white"/>
</clipPath>
</defs>
</svg>
